
<svg viewBox="0 0 400 300" xmlns="http://www.w3.org/2000/svg">
  <path d="M 200 30 A 120 120 0 0 1 200 270 A 120 120 0 0 1 184.96001197228347 269.0537641577373 L 182.4533473009974 288.89605818402686 A 140 140 0 0 1 132.5544856257599 272.6829352061409 L 142.1895591077942 255.15680160526364 A 120 120 0 0 1 117.85434728855739 237.4762352905694 L 104.16340516998362 252.05560783899764 A 140 140 0 0 1 73.32421265475726 209.60910081911015 L 91.42075370407765 201.0935149878087 A 120 120 0 0 1 82.12552991255735 172.48575775028695 L 62.47978489798359 176.23338404200143 A 140 140 0 0 1 62.47978489798359 123.76661595799854 L 82.12552991255737 127.51424224971302 A 120 120 0 0 1 91.42075370407764 98.90648501219133 L 73.32421265475725 90.39089918088987 A 140 140 0 0 1 104.16340516998355 47.94439216100241 L 117.85434728855732 62.52376470943064 A 120 120 0 0 1 142.18955910779408 44.84319839473642 L 132.55448562575975 27.31706479385916 A 140 140 0 0 1 182.45334730099748 11.103941815973087 L 184.96001197228355 30.946235842262652 A 120 120 0 0 1 200 30 " stroke="black" fill="none" stroke-width="2"/>
  <path d="M 50 220 L 120 220 L 140 170 L 170 270 L 200 150 L 230 250 L 250 220 L 320 220" stroke="red" fill="none" stroke-width="2"/>
  <circle cx="320" cy="220" r="5" fill="red"/>
</svg>
